<svg width="200" height="200" viewBox="0 0 200 200" fill="none" xmlns="http://www.w3.org/2000/svg">
<g clip-path="url(#clip0_56_17)">
<path d="M83.3333 133.333V125H25.0833L25 158.333C25 167.583 32.4166 175 41.6666 175H158.333C167.583 175 175 167.583 175 158.333V125H116.667V133.333H83.3333ZM166.667 58.3333H133.25V41.6667L116.583 25H83.25L66.5833 41.6667V58.3333H33.3333C24.1666 58.3333 16.6666 65.8333 16.6666 75V100C16.6666 109.25 24.0833 116.667 33.3333 116.667H83.3333V100H116.667V116.667H166.667C175.833 116.667 183.333 109.167 183.333 100V75C183.333 65.8333 175.833 58.3333 166.667 58.3333ZM116.667 58.3333H83.3333V41.6667H116.667V58.3333Z" fill="white"/>
</g>
<defs>
<clipPath id="clip0_56_17">
<rect width="200" height="200" fill="white"/>
</clipPath>
</defs>
</svg>
