<svg width="20" height="20" viewBox="0 0 20 20" fill="none" xmlns="http://www.w3.org/2000/svg">
<g clip-path="url(#clip0_138_5)">
<path d="M13.3333 9.16666C14.7166 9.16666 15.8249 8.04999 15.8249 6.66666C15.8249 5.28332 14.7166 4.16666 13.3333 4.16666C11.9499 4.16666 10.8333 5.28332 10.8333 6.66666C10.8333 8.04999 11.9499 9.16666 13.3333 9.16666ZM6.66659 9.16666C8.04992 9.16666 9.15825 8.04999 9.15825 6.66666C9.15825 5.28332 8.04992 4.16666 6.66659 4.16666C5.28325 4.16666 4.16659 5.28332 4.16659 6.66666C4.16659 8.04999 5.28325 9.16666 6.66659 9.16666ZM6.66659 10.8333C4.72492 10.8333 0.833252 11.8083 0.833252 13.75V15.8333H12.4999V13.75C12.4999 11.8083 8.60825 10.8333 6.66659 10.8333ZM13.3333 10.8333C13.0916 10.8333 12.8166 10.85 12.5249 10.875C13.4916 11.575 14.1666 12.5167 14.1666 13.75V15.8333H19.1666V13.75C19.1666 11.8083 15.2749 10.8333 13.3333 10.8333Z" fill="#3D454F"/>
</g>
<defs>
<clipPath id="clip0_138_5">
<rect width="20" height="20" fill="white"/>
</clipPath>
</defs>
</svg>
