<svg width="20" height="20" viewBox="0 0 20 20" fill="none" xmlns="http://www.w3.org/2000/svg">
<g clip-path="url(#clip0_37_17)">
<path d="M14.5449 16.5715L12.6121 9.09972L15.853 5.85881C16.3421 5.36973 16.3421 4.58012 15.853 4.09104C15.3639 3.60196 14.5743 3.60196 14.0852 4.09104L10.8443 7.33195L3.37257 5.39919C3.07794 5.31669 2.75385 5.40508 2.53583 5.62311C2.12335 6.03559 2.22352 6.72502 2.73028 7.00786L8.18679 9.98949L4.95178 13.2245L2.82456 12.6883C2.68314 12.6529 2.52993 12.7001 2.42976 12.8002L2.13513 13.0949L2.08799 13.142C1.89354 13.3365 1.93479 13.6606 2.1646 13.7961L4.31538 15.0866L4.65715 15.2869L4.82803 15.5639L5.0107 15.8762L5.84744 17.2786L6.14207 17.7736C6.28349 18.0093 6.60169 18.0446 6.79615 17.8502L7.01417 17.6321L7.13791 17.5084C7.24398 17.4023 7.28523 17.255 7.24987 17.1136L6.71954 14.9923L9.96045 11.7514L12.9421 17.2079C13.219 17.7205 13.9085 17.8207 14.3209 17.4082C14.539 17.1902 14.6274 16.8661 14.5449 16.5715Z" fill="#3D454F"/>
</g>
<defs>
<clipPath id="clip0_37_17">
<rect width="20" height="20" fill="white"/>
</clipPath>
</defs>
</svg>
