<svg width="20" height="20" viewBox="0 0 20 20" fill="none" xmlns="http://www.w3.org/2000/svg">
<g clip-path="url(#clip0_37_22)">
<path d="M14.0608 16.6967L14.0607 16.6967L14.0634 16.7063C14.0958 16.8221 14.0613 16.9607 13.9674 17.0547C13.7909 17.2311 13.4995 17.1877 13.382 16.9702L13.3808 16.9681L10.3992 11.5116L10.079 10.9257L9.6069 11.3978L6.36599 14.6387L6.16581 14.8389L6.23447 15.1135L6.75271 17.1865L6.66062 17.2786L6.51562 17.4236L6.27709 17.0228L6.27683 17.0224L5.44117 15.6218L5.25963 15.3114L5.25975 15.3113L5.25355 15.3013L5.08267 15.0243L5.01734 14.9185L4.91001 14.8556L4.57043 14.6565L4.56824 14.6552L2.5143 13.4228L2.75158 13.1855L4.82956 13.7093L5.10469 13.7787L5.30533 13.5781L8.54034 10.343L9.01249 9.8709L8.42655 9.55072L2.9724 6.57038C2.75388 6.44712 2.71422 6.15183 2.88938 5.97666C2.98331 5.88273 3.12197 5.84825 3.23776 5.88067L3.23773 5.88077L3.24736 5.88326L10.7191 7.81602L10.9958 7.88759L11.1979 7.6855L14.4388 4.4446C14.7326 4.15078 15.2056 4.15078 15.4995 4.4446C15.7933 4.73842 15.7933 5.21144 15.4995 5.50526L12.2585 8.74616L12.0565 8.94825L12.128 9.22493L14.0608 16.6967Z" stroke="#3D454F"/>
</g>
<defs>
<clipPath id="clip0_37_22">
<rect width="20" height="20" fill="white"/>
</clipPath>
</defs>
</svg>
