<svg width="20" height="20" viewBox="0 0 20 20" fill="none" xmlns="http://www.w3.org/2000/svg">
<path d="M8.33342 11.1667H7.83342V11.6667V15.8333C7.83342 16.0155 7.68227 16.1667 7.50008 16.1667H5.00008C4.81789 16.1667 4.66675 16.0155 4.66675 15.8333V10V9.50001H4.16675H2.97238L9.77515 3.37263C9.77532 3.37247 9.77549 3.37232 9.77567 3.37216C9.90237 3.25927 10.0979 3.25929 10.2245 3.37221C10.2247 3.37235 10.2249 3.37249 10.225 3.37263L17.0278 9.50001H15.8334H15.3334V10V15.8333C15.3334 16.0155 15.1823 16.1667 15.0001 16.1667H12.5001C12.3179 16.1667 12.1667 16.0155 12.1667 15.8333V11.6667V11.1667H11.6667H8.33342Z" stroke="#3D454F"/>
</svg>
